<svg xmlns="http://www.w3.org/2000/svg" width="28" height="28" viewBox="0 0 28 28"><g transform="translate(-435 -1286)"><rect width="28" height="28" transform="translate(435 1286)" fill="#175dec" opacity="0"/><g transform="translate(439 1290)"><path d="M-2884.058-51.319h-7.676a6.162,6.162,0,0,0-6.162,6.162v7.675a6.162,6.162,0,0,0,6.162,6.161h7.676a6.161,6.161,0,0,0,6.161-6.161v-7.675A6.161,6.161,0,0,0-2884.058-51.319Zm4.242,13.1a4.979,4.979,0,0,1-4.979,4.979h-6.2a4.979,4.979,0,0,1-4.98-4.979v-6.2A4.981,4.981,0,0,1-2891-49.4h6.2a4.981,4.981,0,0,1,4.979,4.979Z" transform="translate(2897.897 51.319)" fill="#111"/><path d="M-2881.615-40.818a5.267,5.267,0,0,0-5.268,5.268,5.268,5.268,0,0,0,5.268,5.267,5.268,5.268,0,0,0,5.268-5.267A5.267,5.267,0,0,0-2881.615-40.818Zm0,8.437a3.17,3.17,0,0,1-3.17-3.169,3.169,3.169,0,0,1,3.17-3.17,3.17,3.17,0,0,1,3.17,3.17A3.171,3.171,0,0,1-2881.615-32.381Z" transform="translate(2891.883 45.585)" fill="#111"/><path d="M-2864.748-42.612a1.341,1.341,0,0,1-1.34,1.34,1.34,1.34,0,0,1-1.339-1.34,1.34,1.34,0,0,1,1.339-1.34A1.341,1.341,0,0,1-2864.748-42.612Z" transform="translate(2881.259 47.296)" fill="#111"/></g></g></svg>