<svg xmlns="http://www.w3.org/2000/svg" width="20" height="20" viewBox="0 0 20 20"><path d="M3493,12503a10,10,0,1,1,10-10A10.012,10.012,0,0,1,3493,12503Zm-1.293-4.634h0c.552.008,1.05.012,1.523.012,1.944,0,3.617-.063,5.427-.207a1.935,1.935,0,0,0,1.042-.546,1.726,1.726,0,0,0,.414-.7,7.511,7.511,0,0,0,.354-2.381c.026-.351.028-2.34.028-3.179a6.071,6.071,0,0,0-.621-2.891,1.975,1.975,0,0,0-1.17-.7c-1.6-.148-3.23-.224-4.842-.224-.306,0-.6,0-.863.007s-.573-.008-.918-.008c-1.571,0-3.174.073-4.765.218a1.942,1.942,0,0,0-.995.518,3.592,3.592,0,0,0-.746,2.363l0,.054a35.434,35.434,0,0,0,0,4.537,7.053,7.053,0,0,0,.207,1.4,2.21,2.21,0,0,0,.483.951,1.908,1.908,0,0,0,1.013.546,29.665,29.665,0,0,0,3.781.239C3491.288,12498.374,3491.507,12498.372,3491.707,12498.367Zm-.245-3.4v-4.336l4.032,2.178c-.581.33-1.254.683-1.967,1.056l-.036.019c-.666.349-1.354.709-2.028,1.083Z" transform="translate(-3483 -12483.001)" fill="#111"/></svg>