<!DOCTYPE svg PUBLIC "-//W3C//DTD SVG 20010904//EN" "http://www.w3.org/TR/2001/REC-SVG-20010904/DTD/svg10.dtd"[]><svg version="1.0" xmlns="http://www.w3.org/2000/svg" width="24" height="24" viewBox="0 0 360.000000 360.000000" preserveAspectRatio="xMidYMid meet"><g transform="translate(0.000000,360.000000) scale(0.100000,-0.100000)" fill="#000000" stroke="none"><path d="M1614 2962 c-11 -7 -86 -93 -439 -510 l-180 -212 -108 0 c-126 0 -157 -10 -209 -68 -44 -48 -51 -81 -47 -201 4 -82 7 -92 34 -126 23 -29 76 -67 113 -81 1 -1 45 -218 98 -484 57 -289 103 -498 114 -521 26 -50 64 -87 114 -110 39 -17 80 -19 714 -19 644 0 674 1 710 19 49 25 95 73 116 119 14 34 47 212 142 786 19 116 36 210 37 210 27 7 88 50 111 79 29 36 31 46 35 128 4 120 -3 153 -47 201 -52 58 -83 68 -209 68 l-108 0 -66 78 c-37 42 -171 201 -299 352 -128 151 -240 281 -248 288 -57 45 -149 -31 -109 -91 12 -19 100 -124 257 -307 26 -30 89 -104 140 -165 51 -60 102 -120 113 -132 l20 -23 -612 0 -612 0 113 133 c62 74 174 205 248 292 180 212 182 215 175 245 -4 14 -14 33 -22 43 -16 17 -69 23 -89 9z m1200 -888 c22 -22 22 -121 -1 -146 -15 -17 -60 -18 -1011 -18 -1136 0 -1032 -9 -1032 91 0 39 5 63 16 73 14 14 120 16 1014 16 894 0 1000 -2 1014 -16z m-144 -320 c0 -3 -21 -125 -46 -272 -25 -147 -58 -348 -75 -447 -16 -99 -35 -193 -41 -208 -23 -58 -10 -57 -695 -57 -602 0 -629 1 -660 19 -17 11 -34 28 -37 38 -4 16 -58 286 -147 743 -17 85 -33 163 -35 173 -5 16 41 17 865 17 479 0 871 -3 871 -6z" /><path d="M1273 1554 c-30 -30 -30 -19 22 -347 24 -149 38 -214 51 -228 25 -28 75 -25 104 6 l24 25 -42 268 c-36 233 -44 269 -63 285 -30 24 -66 21 -96 -9z" /><path d="M1756 1559 l-26 -20 0 -268 c0 -305 1 -311 70 -311 69 0 70 7 70 310 0 146 -4 270 -8 276 -9 14 -47 34 -65 34 -8 0 -26 -9 -41 -21z" /><path d="M2239 1570 c-27 -16 -36 -53 -75 -312 l-38 -248 24 -25 c15 -16 34 -25 55 -25 59 0 66 18 107 283 20 133 37 252 38 265 1 49 -68 87 -111 62z" /></g></svg>
